<svg width="294" height="294" viewBox="0 0 294 294" fill="none" xmlns="http://www.w3.org/2000/svg">
<path fill-rule="evenodd" clip-rule="evenodd" d="M269.476 65.3918C282.088 84.268 290.113 105.731 293.033 128.074C294.4 138.542 285.714 147.136 275.156 147.136C264.599 147.136 256.216 138.506 254.384 128.109C245.384 77.0347 200.791 38.2326 147.136 38.2326C86.9902 38.2326 38.2322 86.9905 38.2322 147.137C38.2322 200.792 77.0346 245.384 128.109 254.384C138.506 256.216 147.136 264.599 147.136 275.156C147.136 285.714 138.542 294.4 128.074 293.033C105.731 290.113 84.268 282.088 65.3918 269.476C41.1954 253.308 22.3365 230.329 11.2001 203.443C0.063752 176.557 -2.85004 146.973 2.82725 118.431C8.50453 89.8898 22.5179 63.6726 43.0953 43.0953C63.6726 22.5179 89.8898 8.50453 118.431 2.82725C146.973 -2.85004 176.557 0.0637517 203.443 11.2001C230.329 22.3365 253.308 41.1954 269.476 65.3918Z" fill="url(#paint0_angular_241_28315)"/>
<defs>
<radialGradient id="paint0_angular_241_28315" cx="0" cy="0" r="1" gradientUnits="userSpaceOnUse" gradientTransform="translate(146.587 146.587) rotate(90) scale(146.587)">
<stop offset="0.343144" stop-color="#FEC305"/>
<stop offset="0.749867" stop-color="#FF7422"/>
<stop offset="1" stop-color="#FFC404" stop-opacity="0"/>
</radialGradient>
</defs>
</svg>
